<mxfile host="65bd71144e">
    <diagram id="VtJQWgpLsLwjE4KGyv9r" name="페이지-1">
        <mxGraphModel dx="1927" dy="570" grid="1" gridSize="10" guides="1" tooltips="1" connect="1" arrows="1" fold="1" page="1" pageScale="1" pageWidth="1169" pageHeight="827" background="none" math="0" shadow="0">
            <root>
                <mxCell id="0"/>
                <mxCell id="1" parent="0"/>
                <mxCell id="TjO5_9sS9XQUn8M-0InC-1" value="food" style="shape=table;startSize=30;container=1;collapsible=0;childLayout=tableLayout;fixedRows=1;rowLines=0;fontStyle=0;fontFamily=Courier New;labelBackgroundColor=none;fontColor=default;fontSize=12;" parent="1" vertex="1">
                    <mxGeometry x="80" y="80" width="180" height="240" as="geometry"/>
                </mxCell>
                <mxCell id="TjO5_9sS9XQUn8M-0InC-2" value="" style="shape=tableRow;horizontal=0;startSize=0;swimlaneHead=0;swimlaneBody=0;top=0;left=0;bottom=0;right=0;collapsible=0;dropTarget=0;fillColor=none;points=[[0,0.5],[1,0.5]];portConstraint=eastwest;fontFamily=Courier New;labelBackgroundColor=none;fontColor=default;fontStyle=0;fontSize=12;" parent="TjO5_9sS9XQUn8M-0InC-1" vertex="1">
                    <mxGeometry y="30" width="180" height="30" as="geometry"/>
                </mxCell>
                <mxCell id="TjO5_9sS9XQUn8M-0InC-3" value="PK" style="shape=partialRectangle;html=1;whiteSpace=wrap;connectable=0;fillColor=none;top=0;left=0;bottom=0;right=0;overflow=hidden;pointerEvents=1;fontFamily=Courier New;labelBackgroundColor=none;fontColor=default;fontStyle=0;fontSize=12;" parent="TjO5_9sS9XQUn8M-0InC-2" vertex="1">
                    <mxGeometry width="40" height="30" as="geometry">
                        <mxRectangle width="40" height="30" as="alternateBounds"/>
                    </mxGeometry>
                </mxCell>
                <mxCell id="TjO5_9sS9XQUn8M-0InC-4" value="food_id" style="shape=partialRectangle;html=1;whiteSpace=wrap;connectable=0;fillColor=none;top=0;left=0;bottom=0;right=0;align=left;spacingLeft=6;overflow=hidden;fontFamily=Courier New;labelBackgroundColor=none;fontColor=default;fontStyle=0;fontSize=12;" parent="TjO5_9sS9XQUn8M-0InC-2" vertex="1">
                    <mxGeometry x="40" width="140" height="30" as="geometry">
                        <mxRectangle width="140" height="30" as="alternateBounds"/>
                    </mxGeometry>
                </mxCell>
                <mxCell id="TjO5_9sS9XQUn8M-0InC-5" value="" style="shape=tableRow;horizontal=0;startSize=0;swimlaneHead=0;swimlaneBody=0;top=0;left=0;bottom=0;right=0;collapsible=0;dropTarget=0;fillColor=none;points=[[0,0.5],[1,0.5]];portConstraint=eastwest;fontFamily=Courier New;labelBackgroundColor=none;fontColor=default;fontStyle=0;fontSize=12;" parent="TjO5_9sS9XQUn8M-0InC-1" vertex="1">
                    <mxGeometry y="60" width="180" height="30" as="geometry"/>
                </mxCell>
                <mxCell id="TjO5_9sS9XQUn8M-0InC-6" value="" style="shape=partialRectangle;html=1;whiteSpace=wrap;connectable=0;fillColor=none;top=0;left=0;bottom=0;right=0;overflow=hidden;fontFamily=Courier New;labelBackgroundColor=none;fontColor=default;fontStyle=0;fontSize=12;" parent="TjO5_9sS9XQUn8M-0InC-5" vertex="1">
                    <mxGeometry width="40" height="30" as="geometry">
                        <mxRectangle width="40" height="30" as="alternateBounds"/>
                    </mxGeometry>
                </mxCell>
                <mxCell id="TjO5_9sS9XQUn8M-0InC-7" value="name" style="shape=partialRectangle;html=1;whiteSpace=wrap;connectable=0;fillColor=none;top=0;left=0;bottom=0;right=0;align=left;spacingLeft=6;overflow=hidden;fontFamily=Courier New;labelBackgroundColor=none;fontColor=default;fontStyle=0;fontSize=12;" parent="TjO5_9sS9XQUn8M-0InC-5" vertex="1">
                    <mxGeometry x="40" width="140" height="30" as="geometry">
                        <mxRectangle width="140" height="30" as="alternateBounds"/>
                    </mxGeometry>
                </mxCell>
                <mxCell id="TjO5_9sS9XQUn8M-0InC-70" style="shape=tableRow;horizontal=0;startSize=0;swimlaneHead=0;swimlaneBody=0;top=0;left=0;bottom=0;right=0;collapsible=0;dropTarget=0;fillColor=none;points=[[0,0.5],[1,0.5]];portConstraint=eastwest;fontFamily=Courier New;labelBackgroundColor=none;fontColor=default;fontStyle=0;fontSize=12;" parent="TjO5_9sS9XQUn8M-0InC-1" vertex="1">
                    <mxGeometry y="90" width="180" height="30" as="geometry"/>
                </mxCell>
                <mxCell id="TjO5_9sS9XQUn8M-0InC-71" value="FK" style="shape=partialRectangle;html=1;whiteSpace=wrap;connectable=0;fillColor=none;top=0;left=0;bottom=0;right=0;overflow=hidden;fontFamily=Courier New;labelBackgroundColor=none;fontColor=default;fontStyle=0;fontSize=12;" parent="TjO5_9sS9XQUn8M-0InC-70" vertex="1">
                    <mxGeometry width="40" height="30" as="geometry">
                        <mxRectangle width="40" height="30" as="alternateBounds"/>
                    </mxGeometry>
                </mxCell>
                <mxCell id="TjO5_9sS9XQUn8M-0InC-72" value="company_id" style="shape=partialRectangle;html=1;whiteSpace=wrap;connectable=0;fillColor=none;top=0;left=0;bottom=0;right=0;align=left;spacingLeft=6;overflow=hidden;fontFamily=Courier New;labelBackgroundColor=none;fontColor=default;fontStyle=0;fontSize=12;" parent="TjO5_9sS9XQUn8M-0InC-70" vertex="1">
                    <mxGeometry x="40" width="140" height="30" as="geometry">
                        <mxRectangle width="140" height="30" as="alternateBounds"/>
                    </mxGeometry>
                </mxCell>
                <mxCell id="TjO5_9sS9XQUn8M-0InC-148" style="shape=tableRow;horizontal=0;startSize=0;swimlaneHead=0;swimlaneBody=0;top=0;left=0;bottom=0;right=0;collapsible=0;dropTarget=0;fillColor=none;points=[[0,0.5],[1,0.5]];portConstraint=eastwest;fontFamily=Courier New;labelBackgroundColor=none;fontColor=default;fontStyle=0;fontSize=12;" parent="TjO5_9sS9XQUn8M-0InC-1" vertex="1">
                    <mxGeometry y="120" width="180" height="30" as="geometry"/>
                </mxCell>
                <mxCell id="TjO5_9sS9XQUn8M-0InC-149" style="shape=partialRectangle;html=1;whiteSpace=wrap;connectable=0;fillColor=none;top=0;left=0;bottom=0;right=0;overflow=hidden;fontFamily=Courier New;labelBackgroundColor=none;fontColor=default;fontStyle=0;fontSize=12;" parent="TjO5_9sS9XQUn8M-0InC-148" vertex="1">
                    <mxGeometry width="40" height="30" as="geometry">
                        <mxRectangle width="40" height="30" as="alternateBounds"/>
                    </mxGeometry>
                </mxCell>
                <mxCell id="TjO5_9sS9XQUn8M-0InC-150" value="category" style="shape=partialRectangle;html=1;whiteSpace=wrap;connectable=0;fillColor=none;top=0;left=0;bottom=0;right=0;align=left;spacingLeft=6;overflow=hidden;fontFamily=Courier New;labelBackgroundColor=none;fontColor=default;fontStyle=0;fontSize=12;" parent="TjO5_9sS9XQUn8M-0InC-148" vertex="1">
                    <mxGeometry x="40" width="140" height="30" as="geometry">
                        <mxRectangle width="140" height="30" as="alternateBounds"/>
                    </mxGeometry>
                </mxCell>
                <mxCell id="TjO5_9sS9XQUn8M-0InC-39" style="shape=tableRow;horizontal=0;startSize=0;swimlaneHead=0;swimlaneBody=0;top=0;left=0;bottom=0;right=0;collapsible=0;dropTarget=0;fillColor=none;points=[[0,0.5],[1,0.5]];portConstraint=eastwest;fontFamily=Courier New;labelBackgroundColor=none;fontColor=default;fontStyle=0;fontSize=12;" parent="TjO5_9sS9XQUn8M-0InC-1" vertex="1">
                    <mxGeometry y="150" width="180" height="30" as="geometry"/>
                </mxCell>
                <mxCell id="TjO5_9sS9XQUn8M-0InC-40" style="shape=partialRectangle;html=1;whiteSpace=wrap;connectable=0;fillColor=none;top=0;left=0;bottom=0;right=0;overflow=hidden;fontFamily=Courier New;labelBackgroundColor=none;fontColor=default;fontStyle=0;fontSize=12;" parent="TjO5_9sS9XQUn8M-0InC-39" vertex="1">
                    <mxGeometry width="40" height="30" as="geometry">
                        <mxRectangle width="40" height="30" as="alternateBounds"/>
                    </mxGeometry>
                </mxCell>
                <mxCell id="TjO5_9sS9XQUn8M-0InC-41" value="image" style="shape=partialRectangle;html=1;whiteSpace=wrap;connectable=0;fillColor=none;top=0;left=0;bottom=0;right=0;align=left;spacingLeft=6;overflow=hidden;fontFamily=Courier New;labelBackgroundColor=none;fontColor=default;fontStyle=0;fontSize=12;" parent="TjO5_9sS9XQUn8M-0InC-39" vertex="1">
                    <mxGeometry x="40" width="140" height="30" as="geometry">
                        <mxRectangle width="140" height="30" as="alternateBounds"/>
                    </mxGeometry>
                </mxCell>
                <mxCell id="TjO5_9sS9XQUn8M-0InC-42" style="shape=tableRow;horizontal=0;startSize=0;swimlaneHead=0;swimlaneBody=0;top=0;left=0;bottom=0;right=0;collapsible=0;dropTarget=0;fillColor=none;points=[[0,0.5],[1,0.5]];portConstraint=eastwest;fontFamily=Courier New;labelBackgroundColor=none;fontColor=default;fontStyle=0;fontSize=12;" parent="TjO5_9sS9XQUn8M-0InC-1" vertex="1">
                    <mxGeometry y="180" width="180" height="30" as="geometry"/>
                </mxCell>
                <mxCell id="TjO5_9sS9XQUn8M-0InC-43" style="shape=partialRectangle;html=1;whiteSpace=wrap;connectable=0;fillColor=none;top=0;left=0;bottom=0;right=0;overflow=hidden;fontFamily=Courier New;labelBackgroundColor=none;fontColor=default;fontStyle=0;fontSize=12;" parent="TjO5_9sS9XQUn8M-0InC-42" vertex="1">
                    <mxGeometry width="40" height="30" as="geometry">
                        <mxRectangle width="40" height="30" as="alternateBounds"/>
                    </mxGeometry>
                </mxCell>
                <mxCell id="TjO5_9sS9XQUn8M-0InC-44" value="created_at" style="shape=partialRectangle;html=1;whiteSpace=wrap;connectable=0;fillColor=none;top=0;left=0;bottom=0;right=0;align=left;spacingLeft=6;overflow=hidden;fontFamily=Courier New;labelBackgroundColor=none;fontColor=default;fontStyle=0;fontSize=12;" parent="TjO5_9sS9XQUn8M-0InC-42" vertex="1">
                    <mxGeometry x="40" width="140" height="30" as="geometry">
                        <mxRectangle width="140" height="30" as="alternateBounds"/>
                    </mxGeometry>
                </mxCell>
                <mxCell id="TjO5_9sS9XQUn8M-0InC-45" style="shape=tableRow;horizontal=0;startSize=0;swimlaneHead=0;swimlaneBody=0;top=0;left=0;bottom=0;right=0;collapsible=0;dropTarget=0;fillColor=none;points=[[0,0.5],[1,0.5]];portConstraint=eastwest;fontFamily=Courier New;labelBackgroundColor=none;fontColor=default;fontStyle=0;fontSize=12;" parent="TjO5_9sS9XQUn8M-0InC-1" vertex="1">
                    <mxGeometry y="210" width="180" height="30" as="geometry"/>
                </mxCell>
                <mxCell id="TjO5_9sS9XQUn8M-0InC-46" style="shape=partialRectangle;html=1;whiteSpace=wrap;connectable=0;fillColor=none;top=0;left=0;bottom=0;right=0;overflow=hidden;fontFamily=Courier New;labelBackgroundColor=none;fontColor=default;fontStyle=0;fontSize=12;" parent="TjO5_9sS9XQUn8M-0InC-45" vertex="1">
                    <mxGeometry width="40" height="30" as="geometry">
                        <mxRectangle width="40" height="30" as="alternateBounds"/>
                    </mxGeometry>
                </mxCell>
                <mxCell id="TjO5_9sS9XQUn8M-0InC-47" value="updated_at" style="shape=partialRectangle;html=1;whiteSpace=wrap;connectable=0;fillColor=none;top=0;left=0;bottom=0;right=0;align=left;spacingLeft=6;overflow=hidden;fontFamily=Courier New;labelBackgroundColor=none;fontColor=default;fontStyle=0;fontSize=12;" parent="TjO5_9sS9XQUn8M-0InC-45" vertex="1">
                    <mxGeometry x="40" width="140" height="30" as="geometry">
                        <mxRectangle width="140" height="30" as="alternateBounds"/>
                    </mxGeometry>
                </mxCell>
                <mxCell id="TjO5_9sS9XQUn8M-0InC-48" value="company" style="shape=table;startSize=30;container=1;collapsible=0;childLayout=tableLayout;fixedRows=1;rowLines=0;fontStyle=0;fontFamily=Courier New;labelBackgroundColor=none;fontColor=default;fontSize=12;" parent="1" vertex="1">
                    <mxGeometry x="80" y="440" width="180" height="210" as="geometry"/>
                </mxCell>
                <mxCell id="TjO5_9sS9XQUn8M-0InC-49" value="" style="shape=tableRow;horizontal=0;startSize=0;swimlaneHead=0;swimlaneBody=0;top=0;left=0;bottom=0;right=0;collapsible=0;dropTarget=0;fillColor=none;points=[[0,0.5],[1,0.5]];portConstraint=eastwest;fontFamily=Courier New;labelBackgroundColor=none;fontColor=default;fontStyle=0;fontSize=12;" parent="TjO5_9sS9XQUn8M-0InC-48" vertex="1">
                    <mxGeometry y="30" width="180" height="30" as="geometry"/>
                </mxCell>
                <mxCell id="TjO5_9sS9XQUn8M-0InC-50" value="PK" style="shape=partialRectangle;html=1;whiteSpace=wrap;connectable=0;fillColor=none;top=0;left=0;bottom=0;right=0;overflow=hidden;pointerEvents=1;fontFamily=Courier New;labelBackgroundColor=none;fontColor=default;fontStyle=0;fontSize=12;" parent="TjO5_9sS9XQUn8M-0InC-49" vertex="1">
                    <mxGeometry width="40" height="30" as="geometry">
                        <mxRectangle width="40" height="30" as="alternateBounds"/>
                    </mxGeometry>
                </mxCell>
                <mxCell id="TjO5_9sS9XQUn8M-0InC-51" value="company_id" style="shape=partialRectangle;html=1;whiteSpace=wrap;connectable=0;fillColor=none;top=0;left=0;bottom=0;right=0;align=left;spacingLeft=6;overflow=hidden;fontFamily=Courier New;labelBackgroundColor=none;fontColor=default;fontStyle=0;fontSize=12;" parent="TjO5_9sS9XQUn8M-0InC-49" vertex="1">
                    <mxGeometry x="40" width="140" height="30" as="geometry">
                        <mxRectangle width="140" height="30" as="alternateBounds"/>
                    </mxGeometry>
                </mxCell>
                <mxCell id="TjO5_9sS9XQUn8M-0InC-52" value="" style="shape=tableRow;horizontal=0;startSize=0;swimlaneHead=0;swimlaneBody=0;top=0;left=0;bottom=0;right=0;collapsible=0;dropTarget=0;fillColor=none;points=[[0,0.5],[1,0.5]];portConstraint=eastwest;fontFamily=Courier New;labelBackgroundColor=none;fontColor=default;fontStyle=0;fontSize=12;" parent="TjO5_9sS9XQUn8M-0InC-48" vertex="1">
                    <mxGeometry y="60" width="180" height="30" as="geometry"/>
                </mxCell>
                <mxCell id="TjO5_9sS9XQUn8M-0InC-53" value="" style="shape=partialRectangle;html=1;whiteSpace=wrap;connectable=0;fillColor=none;top=0;left=0;bottom=0;right=0;overflow=hidden;fontFamily=Courier New;labelBackgroundColor=none;fontColor=default;fontStyle=0;fontSize=12;" parent="TjO5_9sS9XQUn8M-0InC-52" vertex="1">
                    <mxGeometry width="40" height="30" as="geometry">
                        <mxRectangle width="40" height="30" as="alternateBounds"/>
                    </mxGeometry>
                </mxCell>
                <mxCell id="TjO5_9sS9XQUn8M-0InC-54" value="name" style="shape=partialRectangle;html=1;whiteSpace=wrap;connectable=0;fillColor=none;top=0;left=0;bottom=0;right=0;align=left;spacingLeft=6;overflow=hidden;fontFamily=Courier New;labelBackgroundColor=none;fontColor=default;fontStyle=0;fontSize=12;" parent="TjO5_9sS9XQUn8M-0InC-52" vertex="1">
                    <mxGeometry x="40" width="140" height="30" as="geometry">
                        <mxRectangle width="140" height="30" as="alternateBounds"/>
                    </mxGeometry>
                </mxCell>
                <mxCell id="TjO5_9sS9XQUn8M-0InC-58" style="shape=tableRow;horizontal=0;startSize=0;swimlaneHead=0;swimlaneBody=0;top=0;left=0;bottom=0;right=0;collapsible=0;dropTarget=0;fillColor=none;points=[[0,0.5],[1,0.5]];portConstraint=eastwest;fontFamily=Courier New;labelBackgroundColor=none;fontColor=default;fontStyle=0;fontSize=12;" parent="TjO5_9sS9XQUn8M-0InC-48" vertex="1">
                    <mxGeometry y="90" width="180" height="30" as="geometry"/>
                </mxCell>
                <mxCell id="TjO5_9sS9XQUn8M-0InC-59" style="shape=partialRectangle;html=1;whiteSpace=wrap;connectable=0;fillColor=none;top=0;left=0;bottom=0;right=0;overflow=hidden;fontFamily=Courier New;labelBackgroundColor=none;fontColor=default;fontStyle=0;fontSize=12;" parent="TjO5_9sS9XQUn8M-0InC-58" vertex="1">
                    <mxGeometry width="40" height="30" as="geometry">
                        <mxRectangle width="40" height="30" as="alternateBounds"/>
                    </mxGeometry>
                </mxCell>
                <mxCell id="TjO5_9sS9XQUn8M-0InC-60" value="image" style="shape=partialRectangle;html=1;whiteSpace=wrap;connectable=0;fillColor=none;top=0;left=0;bottom=0;right=0;align=left;spacingLeft=6;overflow=hidden;fontFamily=Courier New;labelBackgroundColor=none;fontColor=default;fontStyle=0;fontSize=12;" parent="TjO5_9sS9XQUn8M-0InC-58" vertex="1">
                    <mxGeometry x="40" width="140" height="30" as="geometry">
                        <mxRectangle width="140" height="30" as="alternateBounds"/>
                    </mxGeometry>
                </mxCell>
                <mxCell id="TjO5_9sS9XQUn8M-0InC-61" style="shape=tableRow;horizontal=0;startSize=0;swimlaneHead=0;swimlaneBody=0;top=0;left=0;bottom=0;right=0;collapsible=0;dropTarget=0;fillColor=none;points=[[0,0.5],[1,0.5]];portConstraint=eastwest;fontFamily=Courier New;labelBackgroundColor=none;fontColor=default;fontStyle=0;fontSize=12;" parent="TjO5_9sS9XQUn8M-0InC-48" vertex="1">
                    <mxGeometry y="120" width="180" height="30" as="geometry"/>
                </mxCell>
                <mxCell id="TjO5_9sS9XQUn8M-0InC-62" style="shape=partialRectangle;html=1;whiteSpace=wrap;connectable=0;fillColor=none;top=0;left=0;bottom=0;right=0;overflow=hidden;fontFamily=Courier New;labelBackgroundColor=none;fontColor=default;fontStyle=0;fontSize=12;" parent="TjO5_9sS9XQUn8M-0InC-61" vertex="1">
                    <mxGeometry width="40" height="30" as="geometry">
                        <mxRectangle width="40" height="30" as="alternateBounds"/>
                    </mxGeometry>
                </mxCell>
                <mxCell id="TjO5_9sS9XQUn8M-0InC-63" value="created_at" style="shape=partialRectangle;html=1;whiteSpace=wrap;connectable=0;fillColor=none;top=0;left=0;bottom=0;right=0;align=left;spacingLeft=6;overflow=hidden;fontFamily=Courier New;labelBackgroundColor=none;fontColor=default;fontStyle=0;fontSize=12;" parent="TjO5_9sS9XQUn8M-0InC-61" vertex="1">
                    <mxGeometry x="40" width="140" height="30" as="geometry">
                        <mxRectangle width="140" height="30" as="alternateBounds"/>
                    </mxGeometry>
                </mxCell>
                <mxCell id="TjO5_9sS9XQUn8M-0InC-64" style="shape=tableRow;horizontal=0;startSize=0;swimlaneHead=0;swimlaneBody=0;top=0;left=0;bottom=0;right=0;collapsible=0;dropTarget=0;fillColor=none;points=[[0,0.5],[1,0.5]];portConstraint=eastwest;fontFamily=Courier New;labelBackgroundColor=none;fontColor=default;fontStyle=0;fontSize=12;" parent="TjO5_9sS9XQUn8M-0InC-48" vertex="1">
                    <mxGeometry y="150" width="180" height="30" as="geometry"/>
                </mxCell>
                <mxCell id="TjO5_9sS9XQUn8M-0InC-65" style="shape=partialRectangle;html=1;whiteSpace=wrap;connectable=0;fillColor=none;top=0;left=0;bottom=0;right=0;overflow=hidden;fontFamily=Courier New;labelBackgroundColor=none;fontColor=default;fontStyle=0;fontSize=12;" parent="TjO5_9sS9XQUn8M-0InC-64" vertex="1">
                    <mxGeometry width="40" height="30" as="geometry">
                        <mxRectangle width="40" height="30" as="alternateBounds"/>
                    </mxGeometry>
                </mxCell>
                <mxCell id="TjO5_9sS9XQUn8M-0InC-66" value="updated_at" style="shape=partialRectangle;html=1;whiteSpace=wrap;connectable=0;fillColor=none;top=0;left=0;bottom=0;right=0;align=left;spacingLeft=6;overflow=hidden;fontFamily=Courier New;labelBackgroundColor=none;fontColor=default;fontStyle=0;fontSize=12;" parent="TjO5_9sS9XQUn8M-0InC-64" vertex="1">
                    <mxGeometry x="40" width="140" height="30" as="geometry">
                        <mxRectangle width="140" height="30" as="alternateBounds"/>
                    </mxGeometry>
                </mxCell>
                <mxCell id="TjO5_9sS9XQUn8M-0InC-67" style="shape=tableRow;horizontal=0;startSize=0;swimlaneHead=0;swimlaneBody=0;top=0;left=0;bottom=0;right=0;collapsible=0;dropTarget=0;fillColor=none;points=[[0,0.5],[1,0.5]];portConstraint=eastwest;fontFamily=Courier New;labelBackgroundColor=none;fontColor=default;fontStyle=0;fontSize=12;" parent="TjO5_9sS9XQUn8M-0InC-48" vertex="1">
                    <mxGeometry y="180" width="180" height="30" as="geometry"/>
                </mxCell>
                <mxCell id="TjO5_9sS9XQUn8M-0InC-68" value="" style="shape=partialRectangle;html=1;whiteSpace=wrap;connectable=0;fillColor=none;top=0;left=0;bottom=0;right=0;overflow=hidden;fontFamily=Courier New;labelBackgroundColor=none;fontColor=default;fontStyle=0;fontSize=12;" parent="TjO5_9sS9XQUn8M-0InC-67" vertex="1">
                    <mxGeometry width="40" height="30" as="geometry">
                        <mxRectangle width="40" height="30" as="alternateBounds"/>
                    </mxGeometry>
                </mxCell>
                <mxCell id="TjO5_9sS9XQUn8M-0InC-69" value="-foods-" style="shape=partialRectangle;html=1;whiteSpace=wrap;connectable=0;fillColor=none;top=0;left=0;bottom=0;right=0;align=left;spacingLeft=6;overflow=hidden;fontFamily=Courier New;labelBackgroundColor=none;fontColor=default;fontStyle=0;fontSize=12;" parent="TjO5_9sS9XQUn8M-0InC-67" vertex="1">
                    <mxGeometry x="40" width="140" height="30" as="geometry">
                        <mxRectangle width="140" height="30" as="alternateBounds"/>
                    </mxGeometry>
                </mxCell>
                <mxCell id="TjO5_9sS9XQUn8M-0InC-185" style="edgeStyle=orthogonalEdgeStyle;rounded=0;orthogonalLoop=1;jettySize=auto;html=1;startArrow=ERone;startFill=0;endArrow=ERoneToMany;endFill=0;fontFamily=Courier New;labelBackgroundColor=none;fontColor=default;fontStyle=0;fontSize=12;" parent="1" source="TjO5_9sS9XQUn8M-0InC-95" target="TjO5_9sS9XQUn8M-0InC-139" edge="1">
                    <mxGeometry relative="1" as="geometry">
                        <Array as="points">
                            <mxPoint x="830" y="120"/>
                            <mxPoint x="640" y="120"/>
                            <mxPoint x="640" y="240"/>
                        </Array>
                    </mxGeometry>
                </mxCell>
                <mxCell id="TjO5_9sS9XQUn8M-0InC-95" value="user" style="shape=table;startSize=30;container=1;collapsible=0;childLayout=tableLayout;fixedRows=1;rowLines=0;fontStyle=0;fontFamily=Courier New;labelBackgroundColor=none;fontColor=default;fontSize=12;" parent="1" vertex="1">
                    <mxGeometry x="740" y="220" width="180" height="330" as="geometry"/>
                </mxCell>
                <mxCell id="TjO5_9sS9XQUn8M-0InC-96" value="" style="shape=tableRow;horizontal=0;startSize=0;swimlaneHead=0;swimlaneBody=0;top=0;left=0;bottom=0;right=0;collapsible=0;dropTarget=0;fillColor=none;points=[[0,0.5],[1,0.5]];portConstraint=eastwest;fontFamily=Courier New;labelBackgroundColor=none;fontColor=default;fontStyle=0;fontSize=12;" parent="TjO5_9sS9XQUn8M-0InC-95" vertex="1">
                    <mxGeometry y="30" width="180" height="30" as="geometry"/>
                </mxCell>
                <mxCell id="TjO5_9sS9XQUn8M-0InC-97" value="PK" style="shape=partialRectangle;html=1;whiteSpace=wrap;connectable=0;fillColor=none;top=0;left=0;bottom=0;right=0;overflow=hidden;pointerEvents=1;fontFamily=Courier New;labelBackgroundColor=none;fontColor=default;fontStyle=0;fontSize=12;" parent="TjO5_9sS9XQUn8M-0InC-96" vertex="1">
                    <mxGeometry width="40" height="30" as="geometry">
                        <mxRectangle width="40" height="30" as="alternateBounds"/>
                    </mxGeometry>
                </mxCell>
                <mxCell id="TjO5_9sS9XQUn8M-0InC-98" value="user_id" style="shape=partialRectangle;html=1;whiteSpace=wrap;connectable=0;fillColor=none;top=0;left=0;bottom=0;right=0;align=left;spacingLeft=6;overflow=hidden;fontFamily=Courier New;labelBackgroundColor=none;fontColor=default;fontStyle=0;fontSize=12;" parent="TjO5_9sS9XQUn8M-0InC-96" vertex="1">
                    <mxGeometry x="40" width="140" height="30" as="geometry">
                        <mxRectangle width="140" height="30" as="alternateBounds"/>
                    </mxGeometry>
                </mxCell>
                <mxCell id="TjO5_9sS9XQUn8M-0InC-99" value="" style="shape=tableRow;horizontal=0;startSize=0;swimlaneHead=0;swimlaneBody=0;top=0;left=0;bottom=0;right=0;collapsible=0;dropTarget=0;fillColor=none;points=[[0,0.5],[1,0.5]];portConstraint=eastwest;fontFamily=Courier New;labelBackgroundColor=none;fontColor=default;fontStyle=0;fontSize=12;" parent="TjO5_9sS9XQUn8M-0InC-95" vertex="1">
                    <mxGeometry y="60" width="180" height="30" as="geometry"/>
                </mxCell>
                <mxCell id="TjO5_9sS9XQUn8M-0InC-100" value="" style="shape=partialRectangle;html=1;whiteSpace=wrap;connectable=0;fillColor=none;top=0;left=0;bottom=0;right=0;overflow=hidden;fontFamily=Courier New;labelBackgroundColor=none;fontColor=default;fontStyle=0;fontSize=12;" parent="TjO5_9sS9XQUn8M-0InC-99" vertex="1">
                    <mxGeometry width="40" height="30" as="geometry">
                        <mxRectangle width="40" height="30" as="alternateBounds"/>
                    </mxGeometry>
                </mxCell>
                <mxCell id="TjO5_9sS9XQUn8M-0InC-101" value="nickname" style="shape=partialRectangle;html=1;whiteSpace=wrap;connectable=0;fillColor=none;top=0;left=0;bottom=0;right=0;align=left;spacingLeft=6;overflow=hidden;fontFamily=Courier New;labelBackgroundColor=none;fontColor=default;fontStyle=0;fontSize=12;" parent="TjO5_9sS9XQUn8M-0InC-99" vertex="1">
                    <mxGeometry x="40" width="140" height="30" as="geometry">
                        <mxRectangle width="140" height="30" as="alternateBounds"/>
                    </mxGeometry>
                </mxCell>
                <mxCell id="TjO5_9sS9XQUn8M-0InC-102" value="" style="shape=tableRow;horizontal=0;startSize=0;swimlaneHead=0;swimlaneBody=0;top=0;left=0;bottom=0;right=0;collapsible=0;dropTarget=0;fillColor=none;points=[[0,0.5],[1,0.5]];portConstraint=eastwest;fontFamily=Courier New;labelBackgroundColor=none;fontColor=default;fontStyle=0;fontSize=12;" parent="TjO5_9sS9XQUn8M-0InC-95" vertex="1">
                    <mxGeometry y="90" width="180" height="30" as="geometry"/>
                </mxCell>
                <mxCell id="TjO5_9sS9XQUn8M-0InC-103" value="" style="shape=partialRectangle;html=1;whiteSpace=wrap;connectable=0;fillColor=none;top=0;left=0;bottom=0;right=0;overflow=hidden;fontFamily=Courier New;labelBackgroundColor=none;fontColor=default;fontStyle=0;fontSize=12;" parent="TjO5_9sS9XQUn8M-0InC-102" vertex="1">
                    <mxGeometry width="40" height="30" as="geometry">
                        <mxRectangle width="40" height="30" as="alternateBounds"/>
                    </mxGeometry>
                </mxCell>
                <mxCell id="TjO5_9sS9XQUn8M-0InC-104" value="password" style="shape=partialRectangle;html=1;whiteSpace=wrap;connectable=0;fillColor=none;top=0;left=0;bottom=0;right=0;align=left;spacingLeft=6;overflow=hidden;fontFamily=Courier New;labelBackgroundColor=none;fontColor=default;fontStyle=0;fontSize=12;" parent="TjO5_9sS9XQUn8M-0InC-102" vertex="1">
                    <mxGeometry x="40" width="140" height="30" as="geometry">
                        <mxRectangle width="140" height="30" as="alternateBounds"/>
                    </mxGeometry>
                </mxCell>
                <mxCell id="TjO5_9sS9XQUn8M-0InC-108" style="shape=tableRow;horizontal=0;startSize=0;swimlaneHead=0;swimlaneBody=0;top=0;left=0;bottom=0;right=0;collapsible=0;dropTarget=0;fillColor=none;points=[[0,0.5],[1,0.5]];portConstraint=eastwest;fontFamily=Courier New;labelBackgroundColor=none;fontColor=default;fontStyle=0;fontSize=12;" parent="TjO5_9sS9XQUn8M-0InC-95" vertex="1">
                    <mxGeometry y="120" width="180" height="30" as="geometry"/>
                </mxCell>
                <mxCell id="TjO5_9sS9XQUn8M-0InC-109" style="shape=partialRectangle;html=1;whiteSpace=wrap;connectable=0;fillColor=none;top=0;left=0;bottom=0;right=0;overflow=hidden;fontFamily=Courier New;labelBackgroundColor=none;fontColor=default;fontStyle=0;fontSize=12;" parent="TjO5_9sS9XQUn8M-0InC-108" vertex="1">
                    <mxGeometry width="40" height="30" as="geometry">
                        <mxRectangle width="40" height="30" as="alternateBounds"/>
                    </mxGeometry>
                </mxCell>
                <mxCell id="TjO5_9sS9XQUn8M-0InC-110" value="profile_image" style="shape=partialRectangle;html=1;whiteSpace=wrap;connectable=0;fillColor=none;top=0;left=0;bottom=0;right=0;align=left;spacingLeft=6;overflow=hidden;fontFamily=Courier New;labelBackgroundColor=none;fontColor=default;fontStyle=0;fontSize=12;" parent="TjO5_9sS9XQUn8M-0InC-108" vertex="1">
                    <mxGeometry x="40" width="140" height="30" as="geometry">
                        <mxRectangle width="140" height="30" as="alternateBounds"/>
                    </mxGeometry>
                </mxCell>
                <mxCell id="TjO5_9sS9XQUn8M-0InC-120" style="shape=tableRow;horizontal=0;startSize=0;swimlaneHead=0;swimlaneBody=0;top=0;left=0;bottom=0;right=0;collapsible=0;dropTarget=0;fillColor=none;points=[[0,0.5],[1,0.5]];portConstraint=eastwest;fontFamily=Courier New;labelBackgroundColor=none;fontColor=default;fontStyle=0;fontSize=12;" parent="TjO5_9sS9XQUn8M-0InC-95" vertex="1">
                    <mxGeometry y="150" width="180" height="30" as="geometry"/>
                </mxCell>
                <mxCell id="TjO5_9sS9XQUn8M-0InC-121" style="shape=partialRectangle;html=1;whiteSpace=wrap;connectable=0;fillColor=none;top=0;left=0;bottom=0;right=0;overflow=hidden;fontFamily=Courier New;labelBackgroundColor=none;fontColor=default;fontStyle=0;fontSize=12;" parent="TjO5_9sS9XQUn8M-0InC-120" vertex="1">
                    <mxGeometry width="40" height="30" as="geometry">
                        <mxRectangle width="40" height="30" as="alternateBounds"/>
                    </mxGeometry>
                </mxCell>
                <mxCell id="TjO5_9sS9XQUn8M-0InC-122" value="email" style="shape=partialRectangle;html=1;whiteSpace=wrap;connectable=0;fillColor=none;top=0;left=0;bottom=0;right=0;align=left;spacingLeft=6;overflow=hidden;fontFamily=Courier New;labelBackgroundColor=none;fontColor=default;fontStyle=0;fontSize=12;" parent="TjO5_9sS9XQUn8M-0InC-120" vertex="1">
                    <mxGeometry x="40" width="140" height="30" as="geometry">
                        <mxRectangle width="140" height="30" as="alternateBounds"/>
                    </mxGeometry>
                </mxCell>
                <mxCell id="TjO5_9sS9XQUn8M-0InC-117" style="shape=tableRow;horizontal=0;startSize=0;swimlaneHead=0;swimlaneBody=0;top=0;left=0;bottom=0;right=0;collapsible=0;dropTarget=0;fillColor=none;points=[[0,0.5],[1,0.5]];portConstraint=eastwest;fontFamily=Courier New;labelBackgroundColor=none;fontColor=default;fontStyle=0;fontSize=12;" parent="TjO5_9sS9XQUn8M-0InC-95" vertex="1">
                    <mxGeometry y="180" width="180" height="30" as="geometry"/>
                </mxCell>
                <mxCell id="TjO5_9sS9XQUn8M-0InC-118" style="shape=partialRectangle;html=1;whiteSpace=wrap;connectable=0;fillColor=none;top=0;left=0;bottom=0;right=0;overflow=hidden;fontFamily=Courier New;labelBackgroundColor=none;fontColor=default;fontStyle=0;fontSize=12;" parent="TjO5_9sS9XQUn8M-0InC-117" vertex="1">
                    <mxGeometry width="40" height="30" as="geometry">
                        <mxRectangle width="40" height="30" as="alternateBounds"/>
                    </mxGeometry>
                </mxCell>
                <mxCell id="TjO5_9sS9XQUn8M-0InC-119" value="gender" style="shape=partialRectangle;html=1;whiteSpace=wrap;connectable=0;fillColor=none;top=0;left=0;bottom=0;right=0;align=left;spacingLeft=6;overflow=hidden;fontFamily=Courier New;labelBackgroundColor=none;fontColor=default;fontStyle=0;fontSize=12;" parent="TjO5_9sS9XQUn8M-0InC-117" vertex="1">
                    <mxGeometry x="40" width="140" height="30" as="geometry">
                        <mxRectangle width="140" height="30" as="alternateBounds"/>
                    </mxGeometry>
                </mxCell>
                <mxCell id="TjO5_9sS9XQUn8M-0InC-123" style="shape=tableRow;horizontal=0;startSize=0;swimlaneHead=0;swimlaneBody=0;top=0;left=0;bottom=0;right=0;collapsible=0;dropTarget=0;fillColor=none;points=[[0,0.5],[1,0.5]];portConstraint=eastwest;fontFamily=Courier New;labelBackgroundColor=none;fontColor=default;fontStyle=0;fontSize=12;" parent="TjO5_9sS9XQUn8M-0InC-95" vertex="1">
                    <mxGeometry y="210" width="180" height="30" as="geometry"/>
                </mxCell>
                <mxCell id="TjO5_9sS9XQUn8M-0InC-124" style="shape=partialRectangle;html=1;whiteSpace=wrap;connectable=0;fillColor=none;top=0;left=0;bottom=0;right=0;overflow=hidden;fontFamily=Courier New;labelBackgroundColor=none;fontColor=default;fontStyle=0;fontSize=12;" parent="TjO5_9sS9XQUn8M-0InC-123" vertex="1">
                    <mxGeometry width="40" height="30" as="geometry">
                        <mxRectangle width="40" height="30" as="alternateBounds"/>
                    </mxGeometry>
                </mxCell>
                <mxCell id="TjO5_9sS9XQUn8M-0InC-125" value="birthday" style="shape=partialRectangle;html=1;whiteSpace=wrap;connectable=0;fillColor=none;top=0;left=0;bottom=0;right=0;align=left;spacingLeft=6;overflow=hidden;fontFamily=Courier New;labelBackgroundColor=none;fontColor=default;fontStyle=0;fontSize=12;" parent="TjO5_9sS9XQUn8M-0InC-123" vertex="1">
                    <mxGeometry x="40" width="140" height="30" as="geometry">
                        <mxRectangle width="140" height="30" as="alternateBounds"/>
                    </mxGeometry>
                </mxCell>
                <mxCell id="6" style="shape=tableRow;horizontal=0;startSize=0;swimlaneHead=0;swimlaneBody=0;top=0;left=0;bottom=0;right=0;collapsible=0;dropTarget=0;fillColor=none;points=[[0,0.5],[1,0.5]];portConstraint=eastwest;fontFamily=Courier New;labelBackgroundColor=none;fontColor=default;fontStyle=0;fontSize=12;" parent="TjO5_9sS9XQUn8M-0InC-95" vertex="1">
                    <mxGeometry y="240" width="180" height="30" as="geometry"/>
                </mxCell>
                <mxCell id="7" style="shape=partialRectangle;html=1;whiteSpace=wrap;connectable=0;fillColor=none;top=0;left=0;bottom=0;right=0;overflow=hidden;fontFamily=Courier New;labelBackgroundColor=none;fontColor=default;fontStyle=0;fontSize=12;" parent="6" vertex="1">
                    <mxGeometry width="40" height="30" as="geometry">
                        <mxRectangle width="40" height="30" as="alternateBounds"/>
                    </mxGeometry>
                </mxCell>
                <mxCell id="8" value="enabled" style="shape=partialRectangle;html=1;whiteSpace=wrap;connectable=0;fillColor=none;top=0;left=0;bottom=0;right=0;align=left;spacingLeft=6;overflow=hidden;fontFamily=Courier New;labelBackgroundColor=none;fontColor=default;fontStyle=0;fontSize=12;" parent="6" vertex="1">
                    <mxGeometry x="40" width="140" height="30" as="geometry">
                        <mxRectangle width="140" height="30" as="alternateBounds"/>
                    </mxGeometry>
                </mxCell>
                <mxCell id="TjO5_9sS9XQUn8M-0InC-111" style="shape=tableRow;horizontal=0;startSize=0;swimlaneHead=0;swimlaneBody=0;top=0;left=0;bottom=0;right=0;collapsible=0;dropTarget=0;fillColor=none;points=[[0,0.5],[1,0.5]];portConstraint=eastwest;fontFamily=Courier New;labelBackgroundColor=none;fontColor=default;fontStyle=0;fontSize=12;" parent="TjO5_9sS9XQUn8M-0InC-95" vertex="1">
                    <mxGeometry y="270" width="180" height="30" as="geometry"/>
                </mxCell>
                <mxCell id="TjO5_9sS9XQUn8M-0InC-112" style="shape=partialRectangle;html=1;whiteSpace=wrap;connectable=0;fillColor=none;top=0;left=0;bottom=0;right=0;overflow=hidden;fontFamily=Courier New;labelBackgroundColor=none;fontColor=default;fontStyle=0;fontSize=12;" parent="TjO5_9sS9XQUn8M-0InC-111" vertex="1">
                    <mxGeometry width="40" height="30" as="geometry">
                        <mxRectangle width="40" height="30" as="alternateBounds"/>
                    </mxGeometry>
                </mxCell>
                <mxCell id="TjO5_9sS9XQUn8M-0InC-113" value="created_at" style="shape=partialRectangle;html=1;whiteSpace=wrap;connectable=0;fillColor=none;top=0;left=0;bottom=0;right=0;align=left;spacingLeft=6;overflow=hidden;fontFamily=Courier New;labelBackgroundColor=none;fontColor=default;fontStyle=0;fontSize=12;" parent="TjO5_9sS9XQUn8M-0InC-111" vertex="1">
                    <mxGeometry x="40" width="140" height="30" as="geometry">
                        <mxRectangle width="140" height="30" as="alternateBounds"/>
                    </mxGeometry>
                </mxCell>
                <mxCell id="TjO5_9sS9XQUn8M-0InC-114" style="shape=tableRow;horizontal=0;startSize=0;swimlaneHead=0;swimlaneBody=0;top=0;left=0;bottom=0;right=0;collapsible=0;dropTarget=0;fillColor=none;points=[[0,0.5],[1,0.5]];portConstraint=eastwest;fontFamily=Courier New;labelBackgroundColor=none;fontColor=default;fontStyle=0;fontSize=12;" parent="TjO5_9sS9XQUn8M-0InC-95" vertex="1">
                    <mxGeometry y="300" width="180" height="30" as="geometry"/>
                </mxCell>
                <mxCell id="TjO5_9sS9XQUn8M-0InC-115" style="shape=partialRectangle;html=1;whiteSpace=wrap;connectable=0;fillColor=none;top=0;left=0;bottom=0;right=0;overflow=hidden;fontFamily=Courier New;labelBackgroundColor=none;fontColor=default;fontStyle=0;fontSize=12;" parent="TjO5_9sS9XQUn8M-0InC-114" vertex="1">
                    <mxGeometry width="40" height="30" as="geometry">
                        <mxRectangle width="40" height="30" as="alternateBounds"/>
                    </mxGeometry>
                </mxCell>
                <mxCell id="TjO5_9sS9XQUn8M-0InC-116" value="updated_at" style="shape=partialRectangle;html=1;whiteSpace=wrap;connectable=0;fillColor=none;top=0;left=0;bottom=0;right=0;align=left;spacingLeft=6;overflow=hidden;fontFamily=Courier New;labelBackgroundColor=none;fontColor=default;fontStyle=0;fontSize=12;" parent="TjO5_9sS9XQUn8M-0InC-114" vertex="1">
                    <mxGeometry x="40" width="140" height="30" as="geometry">
                        <mxRectangle width="140" height="30" as="alternateBounds"/>
                    </mxGeometry>
                </mxCell>
                <mxCell id="TjO5_9sS9XQUn8M-0InC-126" value="review" style="shape=table;startSize=30;container=1;collapsible=0;childLayout=tableLayout;fixedRows=1;rowLines=0;fontStyle=0;fontFamily=Courier New;labelBackgroundColor=none;fontColor=default;fontSize=12;" parent="1" vertex="1">
                    <mxGeometry x="400" y="80" width="180" height="300" as="geometry"/>
                </mxCell>
                <mxCell id="TjO5_9sS9XQUn8M-0InC-127" value="" style="shape=tableRow;horizontal=0;startSize=0;swimlaneHead=0;swimlaneBody=0;top=0;left=0;bottom=0;right=0;collapsible=0;dropTarget=0;fillColor=none;points=[[0,0.5],[1,0.5]];portConstraint=eastwest;fontFamily=Courier New;labelBackgroundColor=none;fontColor=default;fontStyle=0;fontSize=12;" parent="TjO5_9sS9XQUn8M-0InC-126" vertex="1">
                    <mxGeometry y="30" width="180" height="30" as="geometry"/>
                </mxCell>
                <mxCell id="TjO5_9sS9XQUn8M-0InC-128" value="PK" style="shape=partialRectangle;html=1;whiteSpace=wrap;connectable=0;fillColor=none;top=0;left=0;bottom=0;right=0;overflow=hidden;pointerEvents=1;fontFamily=Courier New;labelBackgroundColor=none;fontColor=default;fontStyle=0;fontSize=12;" parent="TjO5_9sS9XQUn8M-0InC-127" vertex="1">
                    <mxGeometry width="40" height="30" as="geometry">
                        <mxRectangle width="40" height="30" as="alternateBounds"/>
                    </mxGeometry>
                </mxCell>
                <mxCell id="TjO5_9sS9XQUn8M-0InC-129" value="review_id" style="shape=partialRectangle;html=1;whiteSpace=wrap;connectable=0;fillColor=none;top=0;left=0;bottom=0;right=0;align=left;spacingLeft=6;overflow=hidden;fontFamily=Courier New;labelBackgroundColor=none;fontColor=default;fontStyle=0;fontSize=12;" parent="TjO5_9sS9XQUn8M-0InC-127" vertex="1">
                    <mxGeometry x="40" width="140" height="30" as="geometry">
                        <mxRectangle width="140" height="30" as="alternateBounds"/>
                    </mxGeometry>
                </mxCell>
                <mxCell id="TjO5_9sS9XQUn8M-0InC-130" value="" style="shape=tableRow;horizontal=0;startSize=0;swimlaneHead=0;swimlaneBody=0;top=0;left=0;bottom=0;right=0;collapsible=0;dropTarget=0;fillColor=none;points=[[0,0.5],[1,0.5]];portConstraint=eastwest;fontFamily=Courier New;labelBackgroundColor=none;fontColor=default;fontStyle=0;fontSize=12;" parent="TjO5_9sS9XQUn8M-0InC-126" vertex="1">
                    <mxGeometry y="60" width="180" height="30" as="geometry"/>
                </mxCell>
                <mxCell id="TjO5_9sS9XQUn8M-0InC-131" value="" style="shape=partialRectangle;html=1;whiteSpace=wrap;connectable=0;fillColor=none;top=0;left=0;bottom=0;right=0;overflow=hidden;fontFamily=Courier New;labelBackgroundColor=none;fontColor=default;fontStyle=0;fontSize=12;" parent="TjO5_9sS9XQUn8M-0InC-130" vertex="1">
                    <mxGeometry width="40" height="30" as="geometry">
                        <mxRectangle width="40" height="30" as="alternateBounds"/>
                    </mxGeometry>
                </mxCell>
                <mxCell id="TjO5_9sS9XQUn8M-0InC-132" value="comment" style="shape=partialRectangle;html=1;whiteSpace=wrap;connectable=0;fillColor=none;top=0;left=0;bottom=0;right=0;align=left;spacingLeft=6;overflow=hidden;fontFamily=Courier New;labelBackgroundColor=none;fontColor=default;fontStyle=0;fontSize=12;" parent="TjO5_9sS9XQUn8M-0InC-130" vertex="1">
                    <mxGeometry x="40" width="140" height="30" as="geometry">
                        <mxRectangle width="140" height="30" as="alternateBounds"/>
                    </mxGeometry>
                </mxCell>
                <mxCell id="TjO5_9sS9XQUn8M-0InC-133" value="" style="shape=tableRow;horizontal=0;startSize=0;swimlaneHead=0;swimlaneBody=0;top=0;left=0;bottom=0;right=0;collapsible=0;dropTarget=0;fillColor=none;points=[[0,0.5],[1,0.5]];portConstraint=eastwest;fontFamily=Courier New;labelBackgroundColor=none;fontColor=default;fontStyle=0;fontSize=12;" parent="TjO5_9sS9XQUn8M-0InC-126" vertex="1">
                    <mxGeometry y="90" width="180" height="30" as="geometry"/>
                </mxCell>
                <mxCell id="TjO5_9sS9XQUn8M-0InC-134" value="" style="shape=partialRectangle;html=1;whiteSpace=wrap;connectable=0;fillColor=none;top=0;left=0;bottom=0;right=0;overflow=hidden;fontFamily=Courier New;labelBackgroundColor=none;fontColor=default;fontStyle=0;fontSize=12;" parent="TjO5_9sS9XQUn8M-0InC-133" vertex="1">
                    <mxGeometry width="40" height="30" as="geometry">
                        <mxRectangle width="40" height="30" as="alternateBounds"/>
                    </mxGeometry>
                </mxCell>
                <mxCell id="TjO5_9sS9XQUn8M-0InC-135" value="score" style="shape=partialRectangle;html=1;whiteSpace=wrap;connectable=0;fillColor=none;top=0;left=0;bottom=0;right=0;align=left;spacingLeft=6;overflow=hidden;fontFamily=Courier New;labelBackgroundColor=none;fontColor=default;fontStyle=0;fontSize=12;" parent="TjO5_9sS9XQUn8M-0InC-133" vertex="1">
                    <mxGeometry x="40" width="140" height="30" as="geometry">
                        <mxRectangle width="140" height="30" as="alternateBounds"/>
                    </mxGeometry>
                </mxCell>
                <mxCell id="TjO5_9sS9XQUn8M-0InC-136" style="shape=tableRow;horizontal=0;startSize=0;swimlaneHead=0;swimlaneBody=0;top=0;left=0;bottom=0;right=0;collapsible=0;dropTarget=0;fillColor=none;points=[[0,0.5],[1,0.5]];portConstraint=eastwest;fontFamily=Courier New;labelBackgroundColor=none;fontColor=default;fontStyle=0;fontSize=12;" parent="TjO5_9sS9XQUn8M-0InC-126" vertex="1">
                    <mxGeometry y="120" width="180" height="30" as="geometry"/>
                </mxCell>
                <mxCell id="TjO5_9sS9XQUn8M-0InC-137" value="FK" style="shape=partialRectangle;html=1;whiteSpace=wrap;connectable=0;fillColor=none;top=0;left=0;bottom=0;right=0;overflow=hidden;fontFamily=Courier New;labelBackgroundColor=none;fontColor=default;fontStyle=0;fontSize=12;" parent="TjO5_9sS9XQUn8M-0InC-136" vertex="1">
                    <mxGeometry width="40" height="30" as="geometry">
                        <mxRectangle width="40" height="30" as="alternateBounds"/>
                    </mxGeometry>
                </mxCell>
                <mxCell id="TjO5_9sS9XQUn8M-0InC-138" value="food_id" style="shape=partialRectangle;html=1;whiteSpace=wrap;connectable=0;fillColor=none;top=0;left=0;bottom=0;right=0;align=left;spacingLeft=6;overflow=hidden;fontFamily=Courier New;labelBackgroundColor=none;fontColor=default;fontStyle=0;fontSize=12;" parent="TjO5_9sS9XQUn8M-0InC-136" vertex="1">
                    <mxGeometry x="40" width="140" height="30" as="geometry">
                        <mxRectangle width="140" height="30" as="alternateBounds"/>
                    </mxGeometry>
                </mxCell>
                <mxCell id="TjO5_9sS9XQUn8M-0InC-139" style="shape=tableRow;horizontal=0;startSize=0;swimlaneHead=0;swimlaneBody=0;top=0;left=0;bottom=0;right=0;collapsible=0;dropTarget=0;fillColor=none;points=[[0,0.5],[1,0.5]];portConstraint=eastwest;fontFamily=Courier New;labelBackgroundColor=none;fontColor=default;fontStyle=0;fontSize=12;" parent="TjO5_9sS9XQUn8M-0InC-126" vertex="1">
                    <mxGeometry y="150" width="180" height="30" as="geometry"/>
                </mxCell>
                <mxCell id="TjO5_9sS9XQUn8M-0InC-140" value="FK" style="shape=partialRectangle;html=1;whiteSpace=wrap;connectable=0;fillColor=none;top=0;left=0;bottom=0;right=0;overflow=hidden;fontFamily=Courier New;labelBackgroundColor=none;fontColor=default;fontStyle=0;fontSize=12;" parent="TjO5_9sS9XQUn8M-0InC-139" vertex="1">
                    <mxGeometry width="40" height="30" as="geometry">
                        <mxRectangle width="40" height="30" as="alternateBounds"/>
                    </mxGeometry>
                </mxCell>
                <mxCell id="TjO5_9sS9XQUn8M-0InC-141" value="user_id" style="shape=partialRectangle;html=1;whiteSpace=wrap;connectable=0;fillColor=none;top=0;left=0;bottom=0;right=0;align=left;spacingLeft=6;overflow=hidden;fontFamily=Courier New;labelBackgroundColor=none;fontColor=default;fontStyle=0;fontSize=12;" parent="TjO5_9sS9XQUn8M-0InC-139" vertex="1">
                    <mxGeometry x="40" width="140" height="30" as="geometry">
                        <mxRectangle width="140" height="30" as="alternateBounds"/>
                    </mxGeometry>
                </mxCell>
                <mxCell id="TjO5_9sS9XQUn8M-0InC-196" style="shape=tableRow;horizontal=0;startSize=0;swimlaneHead=0;swimlaneBody=0;top=0;left=0;bottom=0;right=0;collapsible=0;dropTarget=0;fillColor=none;points=[[0,0.5],[1,0.5]];portConstraint=eastwest;fontFamily=Courier New;labelBackgroundColor=none;fontColor=default;fontStyle=0;fontSize=12;" parent="TjO5_9sS9XQUn8M-0InC-126" vertex="1">
                    <mxGeometry y="180" width="180" height="30" as="geometry"/>
                </mxCell>
                <mxCell id="TjO5_9sS9XQUn8M-0InC-197" style="shape=partialRectangle;html=1;whiteSpace=wrap;connectable=0;fillColor=none;top=0;left=0;bottom=0;right=0;overflow=hidden;fontFamily=Courier New;labelBackgroundColor=none;fontColor=default;fontStyle=0;fontSize=12;" parent="TjO5_9sS9XQUn8M-0InC-196" vertex="1">
                    <mxGeometry width="40" height="30" as="geometry">
                        <mxRectangle width="40" height="30" as="alternateBounds"/>
                    </mxGeometry>
                </mxCell>
                <mxCell id="TjO5_9sS9XQUn8M-0InC-198" value="&lt;span style=&quot;font-size: 12px;&quot;&gt;likes_count&lt;/span&gt;" style="shape=partialRectangle;html=1;whiteSpace=wrap;connectable=0;fillColor=none;top=0;left=0;bottom=0;right=0;align=left;spacingLeft=6;overflow=hidden;fontFamily=Courier New;labelBackgroundColor=none;fontColor=default;fontStyle=0;fontSize=12;" parent="TjO5_9sS9XQUn8M-0InC-196" vertex="1">
                    <mxGeometry x="40" width="140" height="30" as="geometry">
                        <mxRectangle width="140" height="30" as="alternateBounds"/>
                    </mxGeometry>
                </mxCell>
                <mxCell id="TjO5_9sS9XQUn8M-0InC-142" style="shape=tableRow;horizontal=0;startSize=0;swimlaneHead=0;swimlaneBody=0;top=0;left=0;bottom=0;right=0;collapsible=0;dropTarget=0;fillColor=none;points=[[0,0.5],[1,0.5]];portConstraint=eastwest;fontFamily=Courier New;labelBackgroundColor=none;fontColor=default;fontStyle=0;fontSize=12;" parent="TjO5_9sS9XQUn8M-0InC-126" vertex="1">
                    <mxGeometry y="210" width="180" height="30" as="geometry"/>
                </mxCell>
                <mxCell id="TjO5_9sS9XQUn8M-0InC-143" style="shape=partialRectangle;html=1;whiteSpace=wrap;connectable=0;fillColor=none;top=0;left=0;bottom=0;right=0;overflow=hidden;fontFamily=Courier New;labelBackgroundColor=none;fontColor=default;fontStyle=0;fontSize=12;" parent="TjO5_9sS9XQUn8M-0InC-142" vertex="1">
                    <mxGeometry width="40" height="30" as="geometry">
                        <mxRectangle width="40" height="30" as="alternateBounds"/>
                    </mxGeometry>
                </mxCell>
                <mxCell id="TjO5_9sS9XQUn8M-0InC-144" value="eaten_date" style="shape=partialRectangle;html=1;whiteSpace=wrap;connectable=0;fillColor=none;top=0;left=0;bottom=0;right=0;align=left;spacingLeft=6;overflow=hidden;fontFamily=Courier New;labelBackgroundColor=none;fontColor=default;fontStyle=0;fontSize=12;" parent="TjO5_9sS9XQUn8M-0InC-142" vertex="1">
                    <mxGeometry x="40" width="140" height="30" as="geometry">
                        <mxRectangle width="140" height="30" as="alternateBounds"/>
                    </mxGeometry>
                </mxCell>
                <mxCell id="TjO5_9sS9XQUn8M-0InC-151" style="shape=tableRow;horizontal=0;startSize=0;swimlaneHead=0;swimlaneBody=0;top=0;left=0;bottom=0;right=0;collapsible=0;dropTarget=0;fillColor=none;points=[[0,0.5],[1,0.5]];portConstraint=eastwest;fontFamily=Courier New;labelBackgroundColor=none;fontColor=default;fontStyle=0;fontSize=12;" parent="TjO5_9sS9XQUn8M-0InC-126" vertex="1">
                    <mxGeometry y="240" width="180" height="30" as="geometry"/>
                </mxCell>
                <mxCell id="TjO5_9sS9XQUn8M-0InC-152" style="shape=partialRectangle;html=1;whiteSpace=wrap;connectable=0;fillColor=none;top=0;left=0;bottom=0;right=0;overflow=hidden;fontFamily=Courier New;labelBackgroundColor=none;fontColor=default;fontStyle=0;fontSize=12;" parent="TjO5_9sS9XQUn8M-0InC-151" vertex="1">
                    <mxGeometry width="40" height="30" as="geometry">
                        <mxRectangle width="40" height="30" as="alternateBounds"/>
                    </mxGeometry>
                </mxCell>
                <mxCell id="TjO5_9sS9XQUn8M-0InC-153" value="&lt;span style=&quot;font-size: 12px; font-style: normal; letter-spacing: normal; text-align: left; text-indent: 0px; text-transform: none; word-spacing: 0px; display: inline; float: none;&quot;&gt;created_at&lt;/span&gt;" style="shape=partialRectangle;html=1;whiteSpace=wrap;connectable=0;fillColor=none;top=0;left=0;bottom=0;right=0;align=left;spacingLeft=6;overflow=hidden;fontFamily=Courier New;labelBackgroundColor=none;fontColor=default;fontStyle=0;fontSize=12;" parent="TjO5_9sS9XQUn8M-0InC-151" vertex="1">
                    <mxGeometry x="40" width="140" height="30" as="geometry">
                        <mxRectangle width="140" height="30" as="alternateBounds"/>
                    </mxGeometry>
                </mxCell>
                <mxCell id="TjO5_9sS9XQUn8M-0InC-145" style="shape=tableRow;horizontal=0;startSize=0;swimlaneHead=0;swimlaneBody=0;top=0;left=0;bottom=0;right=0;collapsible=0;dropTarget=0;fillColor=none;points=[[0,0.5],[1,0.5]];portConstraint=eastwest;fontFamily=Courier New;labelBackgroundColor=none;fontColor=default;fontStyle=0;fontSize=12;" parent="TjO5_9sS9XQUn8M-0InC-126" vertex="1">
                    <mxGeometry y="270" width="180" height="30" as="geometry"/>
                </mxCell>
                <mxCell id="TjO5_9sS9XQUn8M-0InC-146" style="shape=partialRectangle;html=1;whiteSpace=wrap;connectable=0;fillColor=none;top=0;left=0;bottom=0;right=0;overflow=hidden;fontFamily=Courier New;labelBackgroundColor=none;fontColor=default;fontStyle=0;fontSize=12;" parent="TjO5_9sS9XQUn8M-0InC-145" vertex="1">
                    <mxGeometry width="40" height="30" as="geometry">
                        <mxRectangle width="40" height="30" as="alternateBounds"/>
                    </mxGeometry>
                </mxCell>
                <mxCell id="TjO5_9sS9XQUn8M-0InC-147" value="updated_at" style="shape=partialRectangle;html=1;whiteSpace=wrap;connectable=0;fillColor=none;top=0;left=0;bottom=0;right=0;align=left;spacingLeft=6;overflow=hidden;fontFamily=Courier New;labelBackgroundColor=none;fontColor=default;fontStyle=0;fontSize=12;" parent="TjO5_9sS9XQUn8M-0InC-145" vertex="1">
                    <mxGeometry x="40" width="140" height="30" as="geometry">
                        <mxRectangle width="140" height="30" as="alternateBounds"/>
                    </mxGeometry>
                </mxCell>
                <mxCell id="TjO5_9sS9XQUn8M-0InC-186" style="edgeStyle=orthogonalEdgeStyle;rounded=0;orthogonalLoop=1;jettySize=auto;html=1;entryX=0.579;entryY=-0.006;entryDx=0;entryDy=0;entryPerimeter=0;startArrow=ERzeroToMany;startFill=0;endArrow=ERone;endFill=0;fontFamily=Courier New;labelBackgroundColor=none;fontColor=default;fontStyle=0;fontSize=12;" parent="1" source="TjO5_9sS9XQUn8M-0InC-136" target="TjO5_9sS9XQUn8M-0InC-1" edge="1">
                    <mxGeometry relative="1" as="geometry">
                        <Array as="points">
                            <mxPoint x="330" y="205"/>
                            <mxPoint x="330" y="40"/>
                            <mxPoint x="184" y="40"/>
                        </Array>
                    </mxGeometry>
                </mxCell>
                <mxCell id="KlmoCFIe1PvnR92-aecU-1" style="edgeStyle=orthogonalEdgeStyle;rounded=0;orthogonalLoop=1;jettySize=auto;html=1;entryX=-0.006;entryY=0.233;entryDx=0;entryDy=0;entryPerimeter=0;fontFamily=Courier New;labelBackgroundColor=none;fontColor=default;fontStyle=0;fontSize=12;endArrow=ERoneToMany;endFill=0;startArrow=ERone;startFill=0;" parent="1" source="TjO5_9sS9XQUn8M-0InC-70" target="TjO5_9sS9XQUn8M-0InC-49" edge="1">
                    <mxGeometry relative="1" as="geometry">
                        <Array as="points">
                            <mxPoint x="40" y="175"/>
                            <mxPoint x="40" y="477"/>
                        </Array>
                    </mxGeometry>
                </mxCell>
            </root>
        </mxGraphModel>
    </diagram>
</mxfile>